<svg xmlns="http://www.w3.org/2000/svg" width="240.033" height="115.753" viewBox="0 0 240.033 115.753">
  <g id="g12" transform="translate(0 0)">
    <path id="path14" d="M995.936-591.229c-1.708,0-2.706,1.156-2.706,3.054,0,1.918,1,3.054,2.706,3.054s2.693-1.136,2.693-3.054C998.628-590.073,997.63-591.229,995.936-591.229Zm0,7.946a4.758,4.758,0,0,1-4.978-4.893,4.753,4.753,0,0,1,4.978-4.886,4.753,4.753,0,0,1,4.964,4.886,4.751,4.751,0,0,1-4.964,4.893" transform="translate(-859.701 630.261)" fill="#fff"/>
    <path id="path16" d="M1098-587.572h1.156c1.156,0,1.629-.578,1.629-1.57,0-.873-.512-1.464-1.629-1.464H1098Zm0,1.675v3.2h-2.22v-9.568h3.376c2.693,0,3.848,1.359,3.848,3.126,0,1.911-1.2,3.244-3.848,3.244H1098" transform="translate(-950.642 629.572)" fill="#fff"/>
    <path id="path18" d="M1187.032-592.268v1.707H1183.1v2.233h3.008v1.642H1183.1v2.279h3.927v1.707h-6.16v-9.568h6.16" transform="translate(-1024.46 629.572)" fill="#fff"/>
    <path id="path20" d="M1264.495-591.926l4.544,5.746c-.033-.368-.052-.716-.052-1.025v-5.063h1.957v9.568h-1.156a.853.853,0,0,1-.775-.368l-4.512-5.7c.026.335.046.657.046.939v5.129h-1.957v-9.568h1.169a.733.733,0,0,1,.735.342" transform="translate(-1095.355 629.572)" fill="#fff"/>
    <path id="path22" d="M996.945-454.409h.354a.81.81,0,0,0,.709-.309l2.154-3.126a1.012,1.012,0,0,1,.959-.44h1.931l-2.837,3.868a1.883,1.883,0,0,1-.65.578,1.6,1.6,0,0,1,.834.683l2.89,4.44h-1.983a.867.867,0,0,1-.867-.407l-2.167-3.329a.806.806,0,0,0-.788-.335h-.538v4.072h-2.22v-9.568h2.22v3.875" transform="translate(-862.97 513.335)" fill="#fff"/>
    <path id="path24" d="M1093.125-457.943l4.544,5.746c-.033-.368-.052-.716-.052-1.025v-5.063h1.957v9.568h-1.156a.853.853,0,0,1-.775-.368l-4.512-5.7c.026.335.046.657.046.939v5.129h-1.957v-9.568h1.169a.733.733,0,0,1,.735.342" transform="translate(-946.683 513.335)" fill="#fff"/>
    <path id="path26" d="M1191.206-457.244c-1.707,0-2.706,1.156-2.706,3.054,0,1.918,1,3.054,2.706,3.054s2.693-1.136,2.693-3.054C1193.9-456.088,1192.9-457.244,1191.206-457.244Zm0,7.946a4.759,4.759,0,0,1-4.978-4.892,4.753,4.753,0,0,1,4.978-4.886,4.754,4.754,0,0,1,4.965,4.886,4.751,4.751,0,0,1-4.965,4.892" transform="translate(-1029.107 514.022)" fill="#fff"/>
    <path id="path28" d="M1279.65-458.284h1.865a.7.7,0,0,1,.735.479l1.314,4.991a7.673,7.673,0,0,1,.23,1.1c.085-.414.2-.775.3-1.1l1.55-4.991a.755.755,0,0,1,.723-.479h.656a.708.708,0,0,1,.736.479l1.536,4.991a9.038,9.038,0,0,1,.288,1.044c.072-.387.145-.736.224-1.044l1.314-4.991a.729.729,0,0,1,.722-.479h1.747l-2.956,9.568h-2.01l-1.8-5.93c-.06-.184-.132-.407-.191-.65-.059.243-.131.466-.19.65l-1.826,5.93h-2.01l-2.955-9.568" transform="translate(-1110.155 513.335)" fill="#fff"/>
    <path id="path30" d="M1417.336-450.489h3.546v1.773h-5.766v-9.568h2.22v7.8" transform="translate(-1227.678 513.335)" fill="#fff"/>
    <path id="path32" d="M1500.423-458.284v1.707H1496.5v2.233h3.008v1.642H1496.5v2.279h3.928v1.707h-6.16v-9.568h6.16" transform="translate(-1296.342 513.335)" fill="#fff"/>
    <path id="path34" d="M1579.7-456.577h-1.483v6.154h1.483c1.7,0,2.693-1.169,2.693-3.08S1581.394-456.577,1579.7-456.577Zm0,7.861h-3.716v-9.568h3.716a4.672,4.672,0,0,1,4.966,4.781,4.67,4.67,0,0,1-4.966,4.787" transform="translate(-1367.237 513.335)" fill="#fff"/>
    <path id="path36" d="M1673.762-451.294v-1.452h-.945a.4.4,0,0,1-.447-.394v-1.222h3.4v4.039a5.829,5.829,0,0,1-3.665,1.024,4.765,4.765,0,0,1-4.885-4.892,4.71,4.71,0,0,1,5.056-4.886,5.026,5.026,0,0,1,3.559,1.287l-.643.979a.6.6,0,0,1-.5.3.78.78,0,0,1-.406-.131,3.531,3.531,0,0,0-2.089-.6c-1.655,0-2.706,1.221-2.706,3.054,0,2.023,1.183,3.185,2.785,3.185a3.636,3.636,0,0,0,1.484-.289" transform="translate(-1446.392 514.022)" fill="#fff"/>
    <path id="path38" d="M1771.849-458.284v1.707h-3.926v2.233h3.008v1.642h-3.008v2.279h3.926v1.707h-6.16v-9.568h6.16" transform="translate(-1531.816 513.335)" fill="#fff"/>
    <path id="path40" d="M998.5-322.9l5.451,7.092a5.577,5.577,0,0,1-.033-.644v-6.666h1.116v9.411h-.643a.514.514,0,0,1-.453-.23l-5.444-7.086c.02.217.026.433.026.611v6.7H997.4v-9.411h.657a.439.439,0,0,1,.44.217" transform="translate(-865.293 396.07)" fill="#fff"/>
    <path id="path42" d="M1107.931-323.115v1.038h-4.518v3.126h3.658v1h-3.658v3.211h4.518v1.038h-5.8v-9.411h5.8" transform="translate(-956.15 396.07)" fill="#fff"/>
    <path id="path44" d="M1191.76-318.236h1.51c1.452,0,2.233-.808,2.233-1.964,0-1.2-.736-1.911-2.233-1.911h-1.51Zm0,1.011v3.52h-1.267v-9.411h2.778c2.384,0,3.507,1.149,3.507,2.916,0,1.747-1.241,2.975-3.507,2.975h-1.51" transform="translate(-1032.807 396.07)" fill="#fff"/>
    <path id="path46" d="M1274.37-317.2h3.513l-1.477-3.829a6.749,6.749,0,0,1-.282-.887c-.1.361-.19.663-.276.893Zm6.167,3.494h-.985a.438.438,0,0,1-.433-.3l-.88-2.272h-4.223l-.88,2.272a.464.464,0,0,1-.434.3h-.985l3.763-9.411h1.294l3.763,9.411" transform="translate(-1103.273 396.07)" fill="#fff"/>
    <path id="path48" d="M1378.312-314.775h4.071v1.07h-5.346v-9.411h1.275v8.34" transform="translate(-1194.642 396.07)" fill="#fff"/>
    <path id="path50" d="M632.9-823.209l-2.973-2.221L648.3-850.042l2.973,2.221L632.9-823.209" transform="translate(-546.487 853.203)" fill="#fff"/>
    <path id="path52" d="M588.374-774.032l-3.322-1.655,6.6-13.246,3.322,1.654-6.6,13.246" transform="translate(-507.559 800.188)" fill="#fff"/>
    <path id="path54" d="M540.054-850.531l-3.565-1.036,6.487-22.342,3.565,1.034-6.488,22.343" transform="translate(-465.429 873.909)" fill="#fff"/>
    <path id="path56" d="M489.5-808.581l-3.692-.382,1.521-14.714,3.693.382L489.5-808.581" transform="translate(-421.457 830.33)" fill="#fff"/>
    <path id="path58" d="M426.319-820.883l-1.266-16.527,3.7-.283,1.266,16.526-3.7.283" transform="translate(-368.752 842.489)" fill="#fff"/>
    <path id="path60" d="M365.756-777.906l-2.873-10.974,3.59-.94,2.871,10.974-3.588.94" transform="translate(-314.818 800.959)" fill="#fff"/>
    <path id="path62" d="M316.275-735.6l-3.209-6.895,3.363-1.566,3.21,6.895-3.364,1.566" transform="translate(-271.599 761.262)" fill="#fff"/>
    <path id="path64" d="M283-682.359l-1.72-2.436,3.031-2.141,1.719,2.436L283-682.359" transform="translate(-244.023 711.701)" fill="#fff"/>
    <path id="path66" d="M199.9-690.652l-8.7-8.544,2.6-2.649,8.7,8.544-2.6,2.649" transform="translate(-165.873 724.635)" fill="#fff"/>
    <path id="path68" d="M138.195-656.779l-13.466-9.234,2.086-3.069,13.466,9.234-2.086,3.069" transform="translate(-108.208 696.212)" fill="#fff"/>
    <path id="path70" d="M148.186-577.1l-8.48-3.759,1.5-3.392,8.481,3.759-1.5,3.392" transform="translate(-121.202 622.62)" fill="#fff"/>
    <path id="path72" d="M0-550.584,25.119-544.5l.873-3.607L.874-554.189,0-550.584" transform="translate(0 596.537)" fill="#fff"/>
    <path id="path74" d="M61.813-461.47l-18.74-1.091.216-3.706,18.739,1.092-.216,3.7" transform="translate(-37.368 520.261)" fill="#fff"/>
    <path id="path76" d="M48.595-400.906l-.449-3.683L66.309-406.8l.449,3.682-18.163,2.215" transform="translate(-41.769 468.673)" fill="#fff"/>
    <path id="path78" d="M163.927-351.45l-1.1-3.544,4.063-1.26,1.1,3.543-4.063,1.261" transform="translate(-141.26 424.819)" fill="#fff"/>
    <path id="path80" d="M109.282-297.578l-1.715-3.291,13.652-7.115,1.715,3.291-13.652,7.115" transform="translate(-93.319 382.942)" fill="#fff"/>
    <path id="path82" d="M139.4-250.432l-2.275-2.932,13.112-10.174,2.274,2.931L139.4-250.432" transform="translate(-118.959 344.384)" fill="#fff"/>
    <path id="path84" d="M190.306-209.848l-2.762-2.478,10.805-12.04,2.762,2.478-10.806,12.04" transform="translate(-162.704 310.401)" fill="#fff"/>
    <path id="path86" d="M282.192-183.417l-3.161-1.945,3.915-6.36,3.16,1.945-3.914,6.36" transform="translate(-242.072 282.081)" fill="#fff"/>
    <path id="path88" d="M316.784-151.751l-3.457-1.35,5.288-13.543,3.456,1.35-5.288,13.543" transform="translate(-271.826 260.325)" fill="#fff"/>
    <path id="path90" d="M386.024-136.127l-3.642-.711,2.556-13.1,3.642.71-2.556,13.1" transform="translate(-331.734 245.828)" fill="#fff"/>
    <path id="path92" d="M455.084-132.821l-3.711-.05.123-9.279,3.711.049-.123,9.28" transform="translate(-391.587 239.075)" fill="#fff"/>
    <path id="path94" d="M506.478-129.86l-2.97-17.7,3.661-.615,2.969,17.7-3.66.615" transform="translate(-436.816 244.3)" fill="#fff"/>
    <path id="path96" d="M557.323-152.07l-3.673-10.2,3.49-1.257,3.673,10.2-3.49,1.258" transform="translate(-480.316 257.619)" fill="#fff"/>
    <path id="path98" d="M601.1-185.5l13.459,22.956,3.211-1.862-13.46-22.954L601.1-185.5" transform="translate(-521.484 278.294)" fill="#fff"/>
    <path id="path100" d="M646.946-214.848l-2.051-2.105,2.682-2.566,2.052,2.1-2.682,2.566" transform="translate(-559.475 306.196)" fill="#fff"/>
    <path id="path102" d="M691.251-246.7,682-254.284l2.353-2.871,9.252,7.581-2.353,2.871" transform="translate(-591.665 338.846)" fill="#fff"/>
    <path id="path104" d="M722.309-292.379l-9.449-5.248,1.8-3.244,9.451,5.247-1.8,3.245" transform="translate(-618.438 376.772)" fill="#fff"/>
    <path id="path106" d="M740.465-343.594l-4.565-1.551,1.193-3.514,4.564,1.55-1.192,3.515" transform="translate(-638.427 418.231)" fill="#fff"/>
    <path id="path108" d="M764.714-393.159l-14.3-2.131.546-3.67,14.3,2.13-.547,3.671" transform="translate(-651.018 461.869)" fill="#fff"/>
    <path id="path110" d="M755.148-448.373l-.118-3.709,9.177-.29.118,3.71-9.177.289" transform="translate(-655.023 508.206)" fill="#fff"/>
    <path id="path112" d="M747.153-512.972l-.778-3.628,11.347-2.433.779,3.629-11.348,2.433" transform="translate(-647.515 566.038)" fill="#fff"/>
    <path id="path114" d="M730.253-565.111l-1.413-3.431,7.321-3.015,1.412,3.43-7.32,3.016" transform="translate(-632.302 611.605)" fill="#fff"/>
    <path id="path116" d="M705-671.282l-2-3.125,19.378-12.426,2,3.125L705-671.282" transform="translate(-609.881 711.612)" fill="#fff"/>
    <path id="path118" d="M672.2-647.045l-2.529-2.715,2.928-2.727,2.527,2.715-2.926,2.726" transform="translate(-580.966 681.815)" fill="#fff"/>
    <path id="path120" d="M328.011-580.071a3.459,3.459,0,0,1-.922,1.343,4.342,4.342,0,0,1-1.571.874,7.206,7.206,0,0,1-2.252.314H321.75v4.194H318.84v-12.547h4.426a7.3,7.3,0,0,1,2.278.314,4.373,4.373,0,0,1,1.567.865,3.378,3.378,0,0,1,.909,1.3,4.412,4.412,0,0,1,.293,1.619A4.762,4.762,0,0,1,328.011-580.071Zm-11.944,6.726h-1.516a1.317,1.317,0,0,1-.564-.108,1.377,1.377,0,0,1-.452-.375l-5.916-7.475q.025.327.043.642t.017.59v6.726h-2.566v-12.547h1.533a2.474,2.474,0,0,1,.319.017.813.813,0,0,1,.232.065.774.774,0,0,1,.2.133,2.294,2.294,0,0,1,.215.233l5.959,7.535q-.035-.362-.051-.7t-.017-.642v-6.639h2.566Zm23.738-5.866-.083-2.719-8.243.252,8.065-1.719-.567-2.661-8.069,1.72,7.632-3.132-1.033-2.517-7.625,3.129,6.944-4.439-1.465-2.292-6.951,4.443,6.046-5.612-1.85-1.994-6.045,5.612,4.946-6.6-2.177-1.631-4.946,6.6,3.689-7.376-2.433-1.217-3.689,7.377,2.314-7.917-2.611-.763-2.314,7.917.864-8.2-2.705-.285-.894,8.492-.667-8.513-2.712.212.643,8.22-2.1-7.972-2.631.693,2.1,7.977-3.49-7.474-2.465,1.151,3.49,7.472-4.767-6.729-2.22,1.572,4.769,6.733-5.894-5.773-1.9,1.943,5.89,5.77-6.826-4.626-1.526,2.252,6.828,4.628-7.545-3.335-1.1,2.488,7.544,3.335-8.019-1.934-.638,2.644,8.016,1.934-8.232-.473L293-579.835l8.236.473-8.188,1,.331,2.7,8.19-1-7.879,2.45.808,2.6,7.874-2.449-7.311,3.815,1.258,2.412,7.311-3.815-6.513,5.058,1.668,2.148L305.3-569.5l-5.506,6.14,2.025,1.816,5.5-6.139L303-560.664l2.317,1.426,4.324-7.026-3,7.684,2.534.989,3-7.685-1.581,8.1,2.67.521,1.58-8.093-.11,8.245,2.72.036.11-8.251,1.364,8.138,2.683-.45-1.363-8.132,2.792,7.758,2.559-.921-2.793-7.76,4.133,7.137,2.354-1.363-4.132-7.135,5.339,6.284,2.073-1.761-5.34-6.286,6.376,5.231,1.725-2.1-6.38-5.235,7.212,4.012,1.322-2.377-7.205-4.009,7.8,2.659.877-2.575-7.809-2.66,8.158,1.224.4-2.69-8.161-1.224,8.247-.252" transform="translate(-254.19 639.106)" fill="#fff"/>
    <path id="path122" d="M513.193-455.175a1.765,1.765,0,0,0-.663-.392,2.933,2.933,0,0,0-.951-.138h-1.516v3.979h1.516a2.137,2.137,0,0,0,1.636-.543,2.157,2.157,0,0,0,.5-1.516,2.265,2.265,0,0,0-.129-.784,1.594,1.594,0,0,0-.392-.607" transform="translate(-442.503 511.097)" fill="#fff"/>
  </g>
</svg>
